<?xml version="1.0" encoding="UTF-8" standalone="no"?>
<!-- Created with Inkscape (http://www.inkscape.org/) -->

<svg
   width="139.66158mm"
   height="16.822845mm"
   viewBox="0 0 139.66158 16.822845"
   version="1.1"
   id="svg5"
   xml:space="preserve"
   inkscape:version="1.2.1 (9c6d41e410, 2022-07-14)"
   sodipodi:docname="dibujo.svg"
   xmlns:inkscape="http://www.inkscape.org/namespaces/inkscape"
   xmlns:sodipodi="http://sodipodi.sourceforge.net/DTD/sodipodi-0.dtd"
   xmlns="http://www.w3.org/2000/svg"
   xmlns:svg="http://www.w3.org/2000/svg"><sodipodi:namedview
     id="namedview7"
     pagecolor="#ffffff"
     bordercolor="#000000"
     borderopacity="0.25"
     inkscape:showpageshadow="2"
     inkscape:pageopacity="0.0"
     inkscape:pagecheckerboard="0"
     inkscape:deskcolor="#d1d1d1"
     inkscape:document-units="mm"
     showgrid="false"
     inkscape:zoom="1.2008698"
     inkscape:cx="385.1375"
     inkscape:cy="617.05273"
     inkscape:window-width="1600"
     inkscape:window-height="829"
     inkscape:window-x="1912"
     inkscape:window-y="106"
     inkscape:window-maximized="1"
     inkscape:current-layer="layer1" /><defs
     id="defs2" /><g
     inkscape:label="Capa 1"
     inkscape:groupmode="layer"
     id="layer1"
     transform="translate(-24.069417,-199.35209)"><g
       id="g1449"
       inkscape:export-filename="sf-blue.svg"
       inkscape:export-xdpi="96"
       inkscape:export-ydpi="96"><text
         xml:space="preserve"
         style="font-style:normal;font-variant:normal;font-weight:600;font-stretch:normal;font-size:21.196px;font-family:Poppins;-inkscape-font-specification:'Poppins, Semi-Bold';font-variant-ligatures:discretionary-ligatures historical-ligatures no-contextual;font-variant-position:normal;font-variant-caps:normal;font-variant-numeric:normal;font-variant-east-asian:normal;fill:#0066ff;stroke:none;stroke-width:1.76634"
         x="23.463121"
         y="211.18152"
         id="text330"
         transform="scale(0.98065925,1.0197222)"
         inkscape:export-filename="sf-blue.png"
         inkscape:export-xdpi="96"
         inkscape:export-ydpi="96"><tspan
           sodipodi:role="line"
           id="tspan328"
           style="font-style:normal;font-variant:normal;font-weight:600;font-stretch:normal;font-size:21.196px;font-family:Poppins;-inkscape-font-specification:'Poppins, Semi-Bold';font-variant-ligatures:discretionary-ligatures historical-ligatures no-contextual;font-variant-position:normal;font-variant-caps:normal;font-variant-numeric:normal;font-variant-east-asian:normal;fill:#0066ff;stroke-width:1.76634"
           x="23.463121"
           y="211.18152">Smart   Fleets</tspan></text><path
         style="fill:#000000;stroke:#000000;stroke-width:0.0313888"
         d="m 95.347739,216.13702 c -0.460625,-0.0439 -0.549851,-0.0657 -0.615984,-0.1511 -0.05541,-0.0715 -0.0568,-0.11017 -0.02284,-0.63217 0.01986,-0.30582 0.0279,-0.57648 0.01783,-0.60145 -0.01005,-0.0249 -0.0809,-0.0551 -0.15738,-0.067 -0.233336,-0.0362 -1.054391,-0.30581 -1.378388,-0.45262 -0.168197,-0.0762 -0.427632,-0.20869 -0.57652,-0.29438 -0.148894,-0.0856 -0.281032,-0.15575 -0.293646,-0.15575 -0.01263,0 -0.208452,0.19971 -0.435206,0.4438 -0.515966,0.55542 -0.494172,0.5506 -0.944291,0.20877 -0.375664,-0.28528 -0.940242,-0.82002 -1.238329,-1.1729 -0.266226,-0.31514 -0.299711,-0.37615 -0.259921,-0.47356 0.01644,-0.0402 0.236954,-0.24778 0.490018,-0.4612 0.436478,-0.36808 0.457843,-0.39138 0.415783,-0.45356 -0.398116,-0.58839 -0.795264,-1.48315 -0.923896,-2.08149 l -0.03861,-0.17957 -0.149847,0.0177 c -0.08242,0.01 -0.374375,0.0268 -0.6488,0.038 -0.587226,0.0238 -0.589616,0.0228 -0.651834,-0.29697 -0.05093,-0.26171 -0.05093,-1.81245 0,-2.07417 0.06227,-0.31999 0.06465,-0.32108 0.651834,-0.29751 0.274425,0.0111 0.566385,0.0282 0.6488,0.038 l 0.149847,0.0181 0.03861,-0.17955 c 0.128632,-0.59834 0.52578,-1.49311 0.923896,-2.08149 0.04206,-0.0621 0.0207,-0.0855 -0.415783,-0.45357 -0.253064,-0.21341 -0.473573,-0.42096 -0.490018,-0.4612 -0.03976,-0.0973 -0.0064,-0.15821 0.259535,-0.47356 0.286646,-0.33992 0.88657,-0.90862 1.251131,-1.18601 0.431426,-0.32827 0.417782,-0.33151 0.931875,0.22188 0.226754,0.24409 0.424628,0.4438 0.439719,0.4438 0.0151,0 0.103782,-0.0464 0.197074,-0.10309 0.485795,-0.29528 1.26347,-0.60729 1.889789,-0.75824 0.202487,-0.0488 0.370882,-0.0919 0.374206,-0.0957 0.0035,-0.004 -0.0159,-0.26591 -0.04271,-0.58229 -0.05597,-0.66028 -0.04746,-0.70489 0.143924,-0.75345 0.539287,-0.13681 2.383996,-0.10046 2.560582,0.0505 0.0713,0.0609 0.07198,0.18504 0.005,0.94157 -0.03324,0.37593 -0.06765,0.60588 -0.09739,0.65039 -0.0612,0.0916 -0.243112,0.0943 -0.337067,0.005 -0.05772,-0.0549 -0.06462,-0.0884 -0.04878,-0.23721 0.07064,-0.665 0.08755,-0.99308 0.05287,-1.02604 -0.04947,-0.047 -1.785585,-0.0492 -1.834937,-0.002 -0.02423,0.023 -0.02006,0.18463 0.01407,0.55093 0.02662,0.28512 0.0485,0.54784 0.04875,0.58384 9.62e-4,0.13435 -0.0952,0.1893 -0.448313,0.2566 -0.696126,0.13265 -1.491597,0.43935 -2.126602,0.81988 -0.30015,0.17987 -0.348556,0.20039 -0.45545,0.19309 -0.02923,-0.002 -0.223578,-0.18612 -0.431907,-0.40917 -0.208329,-0.22305 -0.397279,-0.42495 -0.419892,-0.44867 -0.03474,-0.0364 -0.07645,-0.0156 -0.268245,0.13355 -0.264943,0.20611 -1.027941,0.9496 -1.091618,1.06372 -0.04909,0.088 -0.114531,0.0183 0.566741,0.60249 0.257051,0.22036 0.329952,0.30039 0.329952,0.36218 0,0.0448 -0.08236,0.20046 -0.189175,0.35757 -0.379676,0.55848 -0.667782,1.19191 -0.822638,1.80862 -0.132203,0.52652 -0.145285,0.56319 -0.213262,0.59778 -0.04535,0.0231 -0.24201,0.022 -0.676106,-0.003 -0.336687,-0.0198 -0.61869,-0.0298 -0.62667,-0.0222 -0.04655,0.0442 -0.07861,0.95255 -0.04807,1.3615 0.01846,0.24708 0.04009,0.45545 0.04807,0.46305 0.0079,0.008 0.289983,-0.002 0.62667,-0.0222 0.434096,-0.0255 0.630761,-0.0264 0.676106,-0.003 0.06797,0.0346 0.08107,0.0712 0.213262,0.59777 0.154856,0.61671 0.442962,1.25014 0.822638,1.80862 0.10682,0.15712 0.189175,0.31278 0.189175,0.35758 0,0.0617 -0.07291,0.1418 -0.329952,0.36219 -0.680059,0.58302 -0.615668,0.51486 -0.567414,0.6006 0.06484,0.11521 0.829617,0.86125 1.092504,1.06575 0.227083,0.17665 0.231948,0.17867 0.283668,0.11793 0.243986,-0.28649 0.773121,-0.82003 0.835693,-0.84263 0.05861,-0.0212 0.102777,-0.0137 0.178414,0.0303 0.618369,0.35997 0.833946,0.47392 1.129395,0.59695 0.361572,0.15055 0.919737,0.31796 1.348393,0.40441 0.340609,0.0686 0.337464,0.0602 0.29214,0.78211 -0.01942,0.3092 -0.02974,0.56857 -0.0229,0.57641 0.06602,0.076 1.841013,0.0753 1.921002,-4.8e-4 0.0082,-0.008 -4.96e-4,-0.26327 -0.01965,-0.56786 -0.01892,-0.30458 -0.02526,-0.58854 -0.01407,-0.63099 0.02794,-0.10594 0.173799,-0.1624 0.289708,-0.1122 0.118284,0.0512 0.136504,0.14284 0.180243,0.90646 0.03863,0.67439 0.03012,0.75156 -0.08658,0.78613 -0.27156,0.0804 -1.537028,0.12756 -2.06828,0.0769 z m 5.504811,-2.21956 c -0.35177,-0.14504 -0.49468,-0.55053 -0.30514,-0.8658 0.0942,-0.1567 0.14293,-0.0581 -0.38465,-0.77851 l -0.351546,-0.48005 h -1.212757 c -1.165038,0 -1.214988,-0.002 -1.270033,-0.0601 -0.03151,-0.0331 -0.0573,-0.0955 -0.0573,-0.13874 0,-0.0432 0.02575,-0.10564 0.0573,-0.13876 0.05521,-0.058 0.105651,-0.0601 1.3876,-0.0601 h 1.330286 l 0.11349,0.14539 c 0.0624,0.0799 0.28394,0.37941 0.49227,0.66542 l 0.37878,0.52005 0.15207,0.0207 c 0.28482,0.0387 0.5017,0.24151 0.55499,0.51892 0.0846,0.44031 -0.44775,0.83223 -0.88536,0.6518 z m 0.40033,-0.44778 c 0.13119,-0.17806 -0.0352,-0.36018 -0.25553,-0.27978 -0.11972,0.0436 -0.12187,0.24918 -0.003,0.32438 0.0733,0.0465 0.209,0.0231 0.25893,-0.0445 z m -6.197471,0.16497 c -0.38125,-0.0946 -0.74155,-0.35595 -0.901929,-0.6541 -0.04845,-0.0901 -0.08412,-0.11683 -0.173739,-0.13008 -0.06203,-0.009 -0.167092,-0.0248 -0.233484,-0.0344 -0.177912,-0.0262 -0.490791,-0.17698 -0.658458,-0.31733 -0.280159,-0.23447 -0.463116,-0.59281 -0.48276,-0.94552 l -0.01063,-0.1916 -0.224796,-0.0744 c -0.438904,-0.14525 -0.872049,-0.5087 -1.062899,-0.8919 -0.316774,-0.63603 -0.207208,-1.39511 0.276845,-1.91798 l 0.132158,-0.14275 -0.132158,-0.14274 c -0.484053,-0.52286 -0.593619,-1.28193 -0.276845,-1.91797 0.19085,-0.38321 0.623995,-0.74667 1.062899,-0.89192 l 0.224796,-0.0743 0.01063,-0.1916 c 0.01818,-0.32674 0.186552,-0.67958 0.431222,-0.90373 0.240243,-0.2201 0.50088,-0.32953 0.935427,-0.39277 0.101538,-0.0148 0.131638,-0.0377 0.188621,-0.14393 0.101362,-0.18891 0.371892,-0.42844 0.609487,-0.53965 0.584681,-0.27364 1.210048,-0.17335 1.67487,0.26862 0.235549,0.22394 0.3585,0.43814 0.413027,0.71955 0.02303,0.11892 0.03517,0.84005 0.03517,2.08894 v 1.90733 h 2.444311 c 2.383056,0 2.444796,-0.002 2.463936,-0.0588 0.0327,-0.0979 0.26217,-0.27236 0.40712,-0.30947 0.28863,-0.0738 0.60327,0.0588 0.73899,0.31181 0.10282,0.19174 0.0782,0.4715 -0.0553,0.62924 -0.29,0.34235 -0.81644,0.33716 -1.03798,-0.0103 l -0.0841,-0.13205 -2.437106,-6.9e-4 -2.437139,-7e-4 -0.0093,2.01244 -0.0093,2.01243 -0.07718,0.18364 c -0.201515,0.47954 -0.613022,0.8127 -1.111744,0.90006 -0.254441,0.0445 -0.379702,0.04 -0.632468,-0.0227 z m 0.779647,-0.45618 c 0.210465,-0.0885 0.397662,-0.26104 0.501585,-0.46224 l 0.08949,-0.17325 0.0089,-1.99712 0.009,-1.99714 h -2.153087 -2.153069 l -0.166036,0.15788 c -0.204212,0.19417 -0.345436,0.46227 -0.392465,0.74506 -0.111972,0.67332 0.407546,1.35681 1.128734,1.48498 0.203007,0.036 0.397249,0.0159 0.627715,-0.0651 l 0.160953,-0.0566 9.62e-4,-0.18312 c 9.61e-4,-0.15316 0.01694,-0.20456 0.09792,-0.31408 0.149132,-0.20176 0.30527,-0.27374 0.56791,-0.26183 0.238803,0.0109 0.322793,0.0534 0.488052,0.24757 0.07667,0.0901 0.09925,0.15044 0.110219,0.29474 0.01858,0.24431 -0.07506,0.43312 -0.274443,0.55335 -0.198185,0.1195 -0.34657,0.1376 -0.561793,0.0685 -0.175125,-0.0561 -0.177181,-0.0561 -0.334776,0.0105 -0.08721,0.0368 -0.250754,0.085 -0.363415,0.10687 l -0.204846,0.0398 0.02096,0.16942 c 0.02726,0.22053 0.139575,0.44646 0.295806,0.59499 0.303833,0.2889 0.786137,0.36671 1.156554,0.18657 l 0.188262,-0.0915 0.002,-0.24472 c 0.002,-0.27442 0.05096,-0.37118 0.26709,-0.52793 0.101806,-0.0738 0.144414,-0.0841 0.349077,-0.0841 0.207173,0 0.248331,0.0103 0.369831,0.0918 0.316575,0.21262 0.371313,0.61766 0.120222,0.88956 -0.175172,0.1897 -0.410645,0.26171 -0.648628,0.19836 -0.132009,-0.0351 -0.143687,-0.0324 -0.311839,0.0728 -0.09608,0.0601 -0.192279,0.10941 -0.213768,0.10941 -0.08968,0 -0.06977,0.068 0.05867,0.20052 0.221437,0.22842 0.472469,0.32531 0.80031,0.30889 0.118236,-0.006 0.274453,-0.0377 0.358035,-0.0728 z m -0.390749,-1.07929 c 0.08193,-0.0779 0.08239,-0.18929 9.62e-4,-0.25926 -0.185881,-0.15994 -0.443095,0.0529 -0.289008,0.23914 0.08074,0.0976 0.197849,0.10577 0.287942,0.0201 z m -1.198211,-1.30255 c 0.102928,-0.0686 0.0988,-0.24004 -0.0074,-0.30617 -0.199365,-0.12421 -0.412039,0.13188 -0.243005,0.2926 0.07735,0.0735 0.154071,0.0777 0.250362,0.0136 z m 8.307574,-2.38149 c 0.0393,-0.0782 0.0373,-0.0964 -0.019,-0.16835 -0.081,-0.10354 -0.2091,-0.11938 -0.29616,-0.0365 -0.13919,0.13234 -0.0427,0.31776 0.15712,0.30176 0.0892,-0.008 0.12373,-0.0284 0.15808,-0.0968 z m -6.118603,-2.29203 c -0.0088,-1.96631 -0.01005,-1.99931 -0.07775,-2.1386 -0.09876,-0.20307 -0.279534,-0.37944 -0.489368,-0.47742 -0.153864,-0.0718 -0.222289,-0.085 -0.43974,-0.0843 -0.326841,6.9e-4 -0.53356,0.0829 -0.740872,0.29365 -0.139936,0.14225 -0.161245,0.21059 -0.06566,0.21059 0.02349,0 0.127709,0.054 0.23158,0.11992 0.181217,0.11505 0.194719,0.11864 0.33362,0.0885 0.210433,-0.0456 0.400246,0.0111 0.567026,0.16971 0.248114,0.23591 0.267264,0.53557 0.05183,0.81124 -0.144623,0.18505 -0.49413,0.27326 -0.737583,0.18613 -0.12958,-0.0464 -0.324908,-0.23685 -0.366882,-0.35779 -0.01971,-0.0567 -0.03082,-0.19476 -0.02463,-0.30659 l 0.01122,-0.20334 -0.189224,-0.0924 c -0.374762,-0.18302 -0.861045,-0.10562 -1.161404,0.18485 -0.154655,0.14954 -0.266484,0.3761 -0.293487,0.59454 l -0.02086,0.1689 0.200365,0.0393 c 0.110196,0.0216 0.279273,0.0725 0.375717,0.11309 0.167632,0.0705 0.18316,0.0718 0.352541,0.0299 0.09746,-0.0241 0.223332,-0.0357 0.279729,-0.0257 0.494992,0.0877 0.710843,0.64995 0.382391,0.99606 -0.144871,0.15264 -0.274641,0.20774 -0.489335,0.20774 -0.387609,0 -0.689831,-0.32478 -0.6305,-0.67753 l 0.01916,-0.11385 -0.169013,-0.0597 c -0.484386,-0.17136 -0.940051,-0.0764 -1.334229,0.27806 -0.612518,0.5508 -0.58966,1.45306 0.04961,1.9581 l 0.106539,0.0842 h 2.139097 2.139101 z m -2.188971,0.0824 c 0.103629,-0.069 0.09878,-0.24005 -0.0088,-0.30701 -0.102917,-0.0641 -0.232248,-0.0351 -0.279034,0.0625 -0.09197,0.19192 0.109565,0.3632 0.28773,0.24455 z m 1.177777,-1.33191 c 0.102672,-0.0767 0.110138,-0.18794 0.01848,-0.27509 -0.08636,-0.0821 -0.215046,-0.0671 -0.294225,0.0341 -0.04944,0.0633 -0.05475,0.0941 -0.0278,0.16152 0.02795,0.0699 0.116883,0.13291 0.198915,0.14095 0.01087,6.9e-4 0.05798,-0.0266 0.104611,-0.0615 z m 6.591937,6.45456 c -0.18919,-0.04 -0.39591,-0.23637 -0.45298,-0.43014 -0.0456,-0.15475 -0.0305,-0.29249 0.0473,-0.43453 l 0.0493,-0.09 -0.26612,-0.25435 -0.26613,-0.25434 H 99.575104 98.02302 l -0.0501,-0.068 c -0.06834,-0.0928 -0.0629,-0.19528 0.01426,-0.26865 0.06269,-0.0596 0.10731,-0.0611 1.707564,-0.0611 h 1.643166 l 0.33863,0.3345 0.33863,0.33449 h 0.17874 c 0.35316,0 0.62186,0.25977 0.62186,0.60121 0,0.40124 -0.37795,0.68042 -0.80013,0.59104 z m 0.30264,-0.46722 c 0.0435,-0.0413 0.079,-0.097 0.079,-0.12382 0,-0.0554 -0.13978,-0.19895 -0.1938,-0.19895 -0.0497,0 -0.17149,0.0633 -0.20005,0.10404 -0.074,0.10534 0.0351,0.29386 0.16998,0.29386 0.0362,0 0.10142,-0.0338 0.14485,-0.0751 z m -4.256549,-3.65875 c -0.142138,-0.0552 -0.181856,-0.23485 -0.07455,-0.33689 0.06256,-0.0595 0.10731,-0.0612 1.602193,-0.0612 h 1.537816 l 0.2691,-0.25719 c 0.26639,-0.2546 0.26873,-0.2582 0.23267,-0.35655 -0.12649,-0.34498 0.12741,-0.7479 0.51,-0.80935 0.36326,-0.0583 0.73842,0.2523 0.7405,0.61318 8.7e-4,0.16227 -0.11322,0.36979 -0.26784,0.48677 -0.11311,0.0856 -0.14549,0.0939 -0.37856,0.0972 l -0.25489,0.003 -0.31715,0.31779 -0.31715,0.31779 -1.605916,0.006 c -0.887385,0.003 -1.63738,-0.006 -1.676232,-0.0212 z m 4.328949,-1.09751 c 0.0685,-0.0828 0.0347,-0.22586 -0.0658,-0.27908 -0.0795,-0.042 -0.0974,-0.042 -0.17682,9e-5 -0.0963,0.0512 -0.12141,0.11566 -0.0907,0.23227 0.0349,0.13214 0.23913,0.16077 0.33327,0.0467 z m -5.040133,-0.90921 c -0.05306,-0.0353 -0.07154,-0.0783 -0.07154,-0.1666 0,-0.21674 -0.0155,-0.21426 1.341171,-0.21426 h 1.198076 l 0.407306,-0.55487 0.40731,-0.55486 -0.0582,-0.12283 c -0.0708,-0.14918 -0.0724,-0.40257 -0.003,-0.52815 0.11176,-0.20359 0.36188,-0.35119 0.59511,-0.35119 0.16446,0 0.38425,0.11115 0.50493,0.25535 0.0908,0.10854 0.0984,0.13608 0.0984,0.3568 0,0.22072 -0.008,0.24826 -0.0984,0.3568 -0.1264,0.15104 -0.33995,0.25491 -0.52804,0.25684 l -0.14608,0.002 -0.41849,0.58202 c -0.23016,0.3201 -0.45305,0.61554 -0.49529,0.65654 l -0.0768,0.0745 h -1.292154 c -1.117413,0 -1.301846,-0.006 -1.363709,-0.0476 z m 3.955073,-1.76083 c 0.12231,-0.11631 0.0187,-0.30342 -0.16809,-0.30342 -0.0918,0 -0.18881,0.0943 -0.18881,0.18364 0,0.16576 0.22803,0.24229 0.3569,0.11978 z"
         id="path1188" /></g></g></svg>
