<?xml version="1.0" encoding="UTF-8" standalone="no"?>
<!-- Created with Inkscape (http://www.inkscape.org/) -->

<svg
   width="139.66156mm"
   height="16.188919mm"
   viewBox="0 0 139.66156 16.188919"
   version="1.1"
   id="svg5"
   xml:space="preserve"
   inkscape:version="1.2.1 (9c6d41e410, 2022-07-14)"
   sodipodi:docname="dibujo.svg"
   xmlns:inkscape="http://www.inkscape.org/namespaces/inkscape"
   xmlns:sodipodi="http://sodipodi.sourceforge.net/DTD/sodipodi-0.dtd"
   xmlns="http://www.w3.org/2000/svg"
   xmlns:svg="http://www.w3.org/2000/svg"><sodipodi:namedview
     id="namedview7"
     pagecolor="#ffffff"
     bordercolor="#000000"
     borderopacity="0.25"
     inkscape:showpageshadow="2"
     inkscape:pageopacity="0.0"
     inkscape:pagecheckerboard="0"
     inkscape:deskcolor="#d1d1d1"
     inkscape:document-units="mm"
     showgrid="false"
     inkscape:zoom="1.2008698"
     inkscape:cx="385.1375"
     inkscape:cy="617.05273"
     inkscape:window-width="1600"
     inkscape:window-height="829"
     inkscape:window-x="1912"
     inkscape:window-y="106"
     inkscape:window-maximized="1"
     inkscape:current-layer="layer1" /><defs
     id="defs2" /><g
     inkscape:label="Capa 1"
     inkscape:groupmode="layer"
     id="layer1"
     transform="translate(-24.950722,-194.50491)"><g
       id="g1027"
       transform="translate(-1.3219585,13.219585)"
       inkscape:export-filename="Smart-f.svg"
       inkscape:export-xdpi="96"
       inkscape:export-ydpi="96"><text
         xml:space="preserve"
         style="font-style:normal;font-variant:normal;font-weight:600;font-stretch:normal;font-size:21.196px;font-family:Poppins;-inkscape-font-specification:'Poppins, Semi-Bold';font-variant-ligatures:discretionary-ligatures historical-ligatures no-contextual;font-variant-position:normal;font-variant-caps:normal;font-variant-numeric:normal;font-variant-east-asian:normal;fill:#0066ff;stroke:none;stroke-width:1.76634"
         x="25.709839"
         y="193.46417"
         id="text330"
         transform="scale(0.98065925,1.0197222)"><tspan
           sodipodi:role="line"
           id="tspan328"
           style="font-style:normal;font-variant:normal;font-weight:600;font-stretch:normal;font-size:21.196px;font-family:Poppins;-inkscape-font-specification:'Poppins, Semi-Bold';font-variant-ligatures:discretionary-ligatures historical-ligatures no-contextual;font-variant-position:normal;font-variant-caps:normal;font-variant-numeric:normal;font-variant-east-asian:normal;fill:#0066ff;stroke-width:1.76634"
           x="25.709839"
           y="193.46417">Smart   Fleets</tspan></text><rect
         style="fill:#000000;stroke:none;stroke-width:0.213323"
         id="rect332"
         width="14.493531"
         height="15.040891"
         x="90.180649"
         y="182.21133"
         transform="matrix(1,0,0.00179765,0.99999838,0,0)" /><path
         style="fill:#ffffff;stroke:none;stroke-width:14.6141;stroke-dasharray:none"
         d="m 90.002362,189.70118 -0.05223,-7.70302 4.03422,0.004 c 2.549508,0.002 3.921898,0.0138 3.728918,0.0305 -0.40511,0.035 -0.53368,0.071 -0.57503,0.16116 -0.0245,0.0531 -0.0199,0.22015 0.017,0.6379 0.0277,0.31104 0.0478,0.56864 0.0447,0.57243 -0.003,0.004 -0.16365,0.0463 -0.35669,0.0939 -0.597038,0.14841 -1.337517,0.45516 -1.799414,0.74544 -0.08872,0.0556 -0.173106,0.10141 -0.187489,0.10141 -0.01418,0 -0.204686,-0.19632 -0.422828,-0.43631 -0.494573,-0.54403 -0.481516,-0.54085 -0.891275,-0.21813 -0.346255,0.2727 -0.915307,0.83182 -1.186745,1.16599 -0.251823,0.31001 -0.283275,0.36988 -0.244662,0.4655 0.01589,0.0396 0.227908,0.24365 0.470962,0.45344 0.419229,0.36188 0.439777,0.38477 0.400034,0.4459 -0.376225,0.57846 -0.749479,1.45809 -0.868315,2.04631 l -0.03565,0.17652 -0.143191,-0.0179 c -0.07887,-0.011 -0.357656,-0.0267 -0.619748,-0.0372 -0.560819,-0.0232 -0.563097,-0.0222 -0.620416,0.29246 -0.04689,0.25732 -0.03656,1.78184 0.01381,2.03914 0.06149,0.31432 0.06388,0.31537 0.624381,0.29194 0.26211,-0.011 0.540606,-0.0279 0.619264,-0.0369 l 0.142983,-0.0173 0.03805,0.17653 c 0.126821,0.58822 0.511989,1.46784 0.896049,2.04629 0.0406,0.0611 0.02053,0.0838 -0.393985,0.44592 -0.240222,0.20979 -0.449389,0.41382 -0.464823,0.4534 -0.03735,0.0959 -0.0052,0.15574 0.25134,0.46553 0.286979,0.34691 0.829627,0.87263 1.190232,1.15311 0.432073,0.33605 0.411298,0.34078 0.900263,-0.20526 0.214886,-0.23995 0.40056,-0.43632 0.412605,-0.43632 0.01212,0 0.138706,0.0692 0.281422,0.15314 0.142755,0.0842 0.391337,0.21445 0.55245,0.28939 0.310352,0.14439 1.096136,0.40943 1.319176,0.445 0.0731,0.0118 0.14094,0.0414 0.1507,0.0659 0.01,0.0247 0.004,0.29064 -0.0127,0.59127 -0.0413,0.73294 -0.0624,0.70657 0.6152,0.76784 0.18426,0.0163 -1.19758,0.0279 -3.742036,0.0304 l -4.034277,0.004 z m 9.119538,7.68262 c 0.218072,-0.0154 0.641834,-0.0704 0.692574,-0.0895 0.10159,-0.0383 0.10881,-0.12001 0.0682,-0.7708 -0.0469,-0.75071 -0.0649,-0.84078 -0.17814,-0.89115 -0.11098,-0.0491 -0.24981,0.006 -0.275882,0.11026 -0.0104,0.0417 -0.002,0.32088 0.0176,0.62034 0.0201,0.29945 0.0303,0.55065 0.0226,0.55826 -0.0759,0.0751 -1.770718,0.0757 -1.834278,6.5e-4 -0.007,-0.008 0.002,-0.26272 0.018,-0.56667 0.0385,-0.70964 0.0415,-0.70138 -0.28417,-0.76891 -0.4099,-0.0851 -0.94396,-0.24955 -1.290211,-0.39754 -0.282914,-0.12081 -0.489534,-0.233 -1.082384,-0.58687 -0.07255,-0.0432 -0.114749,-0.0506 -0.170591,-0.0298 -0.05961,0.0223 -0.561285,0.54675 -0.792349,0.82836 -0.049,0.0598 -0.05362,0.0579 -0.271656,-0.1159 -0.252379,-0.20106 -0.987586,-0.93448 -1.050282,-1.04777 -0.04666,-0.0841 -0.107673,-0.0172 0.537798,-0.59043 0.243977,-0.21665 0.313052,-0.29534 0.312644,-0.35607 -1.39e-4,-0.0438 -0.07997,-0.19705 -0.183004,-0.35153 -0.366263,-0.54905 -0.645581,-1.17176 -0.797552,-1.77803 -0.129794,-0.51768 -0.142548,-0.5537 -0.207626,-0.58772 -0.04346,-0.0227 -0.231206,-0.0215 -0.645428,0.004 -0.321331,0.0194 -0.59056,0.0293 -0.598214,0.0218 -0.0077,-0.008 -0.0297,-0.21227 -0.04897,-0.4552 -0.03192,-0.40207 -0.0074,-1.295 0.03684,-1.33851 0.0074,-0.008 0.276966,0.002 0.598547,0.0215 0.414675,0.0252 0.602448,0.026 0.645729,0.004 0.06466,-0.0339 0.07693,-0.0699 0.199649,-0.58765 0.143739,-0.60631 0.414636,-1.22905 0.773449,-1.77809 0.100944,-0.15443 0.178558,-0.3075 0.178254,-0.35153 -4.73e-4,-0.0612 -0.07055,-0.13941 -0.317464,-0.35608 -0.654404,-0.57419 -0.591457,-0.50577 -0.545169,-0.59229 0.06004,-0.1122 0.783638,-0.84311 1.035246,-1.04573 0.182152,-0.14669 0.221846,-0.16707 0.255245,-0.13121 0.02175,0.0233 0.203521,0.2218 0.403923,0.44108 0.200406,0.21931 0.387212,0.40029 0.41513,0.40226 0.102278,0.008 0.148225,-0.0131 0.433605,-0.18984 0.603793,-0.37407 1.361301,-0.67559 2.025121,-0.80598 0.33673,-0.0666 0.42802,-0.1203 0.42637,-0.25228 -3.8e-4,-0.0354 -0.0231,-0.29368 -0.0504,-0.57397 -0.0351,-0.36015 -0.0401,-0.51902 -0.017,-0.54161 0.0468,-0.0462 1.70455,-0.044 1.752202,0.002 0.0333,0.0322 0.0193,0.35493 -0.0436,1.00872 -0.014,0.14629 -0.007,0.17924 0.0481,0.2332 0.0902,0.0878 0.263986,0.0852 0.321746,-0.005 0.0281,-0.0436 0.0594,-0.26986 0.0887,-0.63943 0.0588,-0.74374 0.0573,-0.86568 -0.0112,-0.926 -0.0501,-0.0442 -0.353256,-0.0959 -0.715458,-0.12173 -0.0763,-0.006 1.393316,-0.0131 3.265766,-0.0148 l 3.40411,-0.005 0.0522,7.70304 0.0522,7.70303 -3.40415,-0.005 c -1.87223,-0.002 -3.342146,-0.011 -3.265936,-0.015 z m 4.45887,-2.22073 c 0.23591,-0.11631 0.37812,-0.37885 0.33264,-0.61401 -0.0528,-0.27273 -0.26119,-0.47206 -0.53339,-0.51016 l -0.14535,-0.0202 -0.36514,-0.51126 c -0.20081,-0.28118 -0.41433,-0.57559 -0.47448,-0.65419 l -0.10941,-0.14294 h -1.27023 c -1.224066,0 -1.272096,0.002 -1.324556,0.0594 -0.0298,0.0327 -0.0541,0.0938 -0.0538,0.13642 3.4e-4,0.0423 0.0253,0.10376 0.0557,0.13638 0.0529,0.0566 0.10067,0.0589 1.213086,0.0589 h 1.15799 l 0.33889,0.47194 c 0.50858,0.70822 0.46139,0.6113 0.37247,0.76539 -0.0544,0.0947 -0.0758,0.17673 -0.0754,0.29093 0.002,0.46187 0.46162,0.74015 0.8809,0.53343 z m -0.37607,-0.3696 c -0.0696,-0.0451 -0.10617,-0.15198 -0.0777,-0.22668 0.0677,-0.17706 0.37032,-0.13029 0.3716,0.0577 9.6e-4,0.14335 -0.17664,0.24569 -0.29393,0.16939 z m -5.06558,0.14058 c 0.47561,-0.0859 0.86633,-0.4134 1.05556,-0.88485 l 0.0725,-0.18054 -0.005,-1.97839 -0.004,-1.97844 2.32708,8.4e-4 2.32708,8.3e-4 0.0813,0.12976 c 0.21384,0.34156 0.71655,0.34667 0.99124,0.011 0.12652,-0.1551 0.14817,-0.4301 0.0487,-0.61862 -0.13127,-0.2487 -0.43258,-0.37918 -0.70769,-0.30655 -0.13814,0.0365 -0.35611,0.20801 -0.38668,0.30428 -0.018,0.0564 -0.0767,0.0578 -2.3523,0.0578 h -2.33398 l -0.0127,-1.87506 c -0.008,-1.22781 -0.0247,-1.93675 -0.0475,-2.05366 -0.054,-0.27665 -0.17278,-0.48721 -0.39918,-0.70741 -0.44677,-0.4345 -1.04458,-0.5331 -1.60104,-0.26406 -0.22612,0.10934 -0.48285,0.34481 -0.57837,0.53055 -0.0537,0.10451 -0.0823,0.12683 -0.17915,0.14147 -0.414512,0.0624 -0.662649,0.16977 -0.890573,0.38615 -0.232128,0.22036 -0.390531,0.56723 -0.405734,0.88845 l -0.0089,0.18835 -0.21415,0.0732 c -0.41812,0.14281 -0.829289,0.50011 -1.00897,0.87683 -0.298234,0.62526 -0.188549,1.37154 0.277121,1.88556 l 0.127145,0.14035 -0.125252,0.14035 c -0.458714,0.51402 -0.558278,1.26025 -0.251568,1.88555 0.184802,0.3767 0.600792,0.73404 1.020849,0.87682 l 0.215145,0.0733 0.01116,0.18835 c 0.02117,0.34675 0.198201,0.69903 0.467262,0.92954 0.161035,0.13796 0.460786,0.28619 0.630842,0.31196 0.06329,0.009 0.163873,0.0251 0.223163,0.0339 0.0857,0.0131 0.11986,0.0391 0.16675,0.12777 0.15511,0.29312 0.5009,0.54999 0.86557,0.64306 0.24179,0.0618 0.36142,0.0663 0.60406,0.0222 z m -0.52748,-0.42861 c -0.20348,-0.066 -0.30475,-0.12844 -0.4428,-0.27413 -0.12351,-0.13016 -0.14298,-0.19711 -0.0573,-0.19711 0.0203,0 0.11206,-0.0484 0.20339,-0.10758 0.15986,-0.10343 0.17097,-0.10636 0.2973,-0.0716 0.22765,0.0624 0.45189,-0.009 0.61802,-0.19501 0.23795,-0.26733 0.18299,-0.66549 -0.12073,-0.87454 -0.11658,-0.0803 -0.1559,-0.0901 -0.35373,-0.0901 -0.19541,0 -0.23597,0.011 -0.33275,0.0826 -0.20533,0.15411 -0.25144,0.24926 -0.25151,0.51898 l -7e-5,0.2406 -0.17916,0.0899 c -0.3525,0.17709 -0.813549,0.1007 -1.105585,-0.18341 -0.150174,-0.14603 -0.258916,-0.36814 -0.286409,-0.58492 l -0.02117,-0.16655 0.19535,-0.039 c 0.107423,-0.0214 0.263282,-0.069 0.346288,-0.1052 0.150021,-0.0658 0.152008,-0.0658 0.319586,-0.011 0.20598,0.0683 0.34752,0.0498 0.53599,-0.0676 0.1896,-0.11816 0.27773,-0.3038 0.25836,-0.544 -0.0112,-0.14184 -0.0334,-0.20122 -0.10721,-0.28977 -0.15908,-0.19084 -0.23957,-0.23273 -0.46767,-0.24336 -0.25084,-0.0118 -0.399443,0.0589 -0.540518,0.25739 -0.07661,0.10789 -0.09158,0.15822 -0.09141,0.30877 l 1.64e-4,0.18006 -0.153313,0.0558 c -0.219515,0.0797 -0.404855,0.0994 -0.598932,0.0643 -0.689461,-0.1258 -1.190103,-0.79793 -1.087662,-1.45988 0.04302,-0.278 0.176098,-0.54157 0.369777,-0.73247 l 0.157496,-0.1552 h 2.055858 2.05586 l 0.005,1.96338 0.005,1.96338 -0.0843,0.17032 c -0.0979,0.19779 -0.27549,0.3674 -0.47586,0.45444 -0.17428,0.0758 -0.49776,0.0963 -0.66483,0.0423 z m 0.009,-1.12295 c -0.14838,-0.1831 0.0958,-0.39232 0.27437,-0.23508 0.0781,0.069 0.0784,0.17829 7.1e-4,0.25485 -0.0854,0.0842 -0.19736,0.0761 -0.27508,-0.0197 z m -1.11687,-1.27407 c -0.162469,-0.15803 0.0389,-0.40979 0.23008,-0.28769 0.10182,0.0653 0.10688,0.23361 0.009,0.30102 -0.0915,0.0633 -0.16482,0.0588 -0.23914,-0.0132 z m 7.84402,-2.28026 c -0.0707,-0.076 -0.0671,-0.1738 0.008,-0.24912 0.0825,-0.0812 0.20502,-0.066 0.28302,0.0361 0.0541,0.0708 0.0563,0.0885 0.0192,0.16549 -0.0528,0.10956 -0.22894,0.13662 -0.31179,0.0476 z m -9.71139,-0.42034 c -0.165161,-0.13359 -0.236941,-0.22217 -0.335428,-0.41375 -0.265166,-0.51585 -0.157326,-1.10847 0.275009,-1.51125 0.374017,-0.34847 0.808477,-0.44182 1.272141,-0.27336 l 0.161791,0.0588 -0.0176,0.11196 c -0.05429,0.3468 0.236432,0.66608 0.606547,0.66608 0.20499,0 0.32856,-0.0539 0.46586,-0.20426 0.31132,-0.34024 0.10147,-0.89301 -0.37176,-0.97921 -0.054,-0.011 -0.17411,9.9e-4 -0.26694,0.0253 -0.161471,0.0411 -0.176267,0.0396 -0.336828,-0.0294 -0.09237,-0.0397 -0.254155,-0.0899 -0.359508,-0.11117 l -0.191593,-0.0384 0.01873,-0.16604 c 0.03907,-0.34493 0.24872,-0.63511 0.563592,-0.7801 0.137949,-0.0637 0.215405,-0.0785 0.404837,-0.078 0.19933,6.8e-4 0.26133,0.0141 0.41558,0.0916 l 0.18132,0.0908 -0.009,0.1999 c -0.0115,0.25212 0.0302,0.3743 0.17603,0.51206 0.13977,0.1321 0.24297,0.1732 0.43301,0.17232 0.27382,-8.4e-4 0.49661,-0.16104 0.58262,-0.41759 0.13946,-0.41606 -0.27204,-0.85855 -0.70778,-0.761 -0.13245,0.0296 -0.14535,0.0261 -0.31915,-0.0871 -0.0996,-0.0651 -0.19947,-0.11788 -0.22192,-0.11788 -0.0913,0 -0.0714,-0.0674 0.0613,-0.20701 0.19654,-0.20719 0.3934,-0.28773 0.70547,-0.28867 0.20763,-6.8e-4 0.27291,0.0118 0.42044,0.0827 0.20099,0.0963 0.3748,0.2697 0.47045,0.46933 0.0656,0.13691 0.067,0.16938 0.0885,2.10248 l 0.0219,1.96334 h -2.0425 -2.042518 z m 1.87629,-1.78344 c -0.0376,-0.0146 -0.0777,-0.0624 -0.0891,-0.10561 -0.0475,-0.1805 0.12372,-0.3111 0.27839,-0.21235 0.10308,0.066 0.10884,0.23398 0.0102,0.30184 -0.0763,0.0526 -0.10171,0.0545 -0.19961,0.016 z m 1.12714,-1.29437 c -0.0383,-0.0149 -0.0844,-0.0645 -0.10211,-0.10921 -0.0688,-0.17429 0.17027,-0.3245 0.30617,-0.19232 0.0881,0.0857 0.0817,0.19493 -0.0159,0.27042 -0.0897,0.0697 -0.0904,0.0698 -0.18818,0.031 z m 7.00997,6.23441 c 0.50786,-0.29969 0.27409,-1.0922 -0.32216,-1.0922 h -0.17067 l -0.32557,-0.32884 -0.32558,-0.32883 h -1.56897 c -1.528,0 -1.57064,9.9e-4 -1.63005,0.0598 -0.0732,0.0722 -0.0777,0.17293 -0.0115,0.26415 l 0.0483,0.0672 h 1.48202 1.48201 l 0.25579,0.25004 0.25582,0.25005 -0.0466,0.0885 c -0.12471,0.23697 -0.077,0.49422 0.12889,0.69437 0.21049,0.20468 0.48329,0.23231 0.74858,0.0758 z m -0.46113,-0.36574 c -0.0623,-0.0607 -0.0808,-0.16752 -0.0395,-0.22871 0.027,-0.0399 0.14295,-0.10225 0.19033,-0.10225 0.0515,0 0.18601,0.14107 0.18637,0.19558 4.8e-4,0.0684 -0.13792,0.19559 -0.21243,0.19559 -0.0346,0 -0.0907,-0.0269 -0.12473,-0.0602 z m -0.39142,-3.90821 0.30071,-0.3124 0.24327,-0.004 c 0.22235,-0.004 0.25336,-0.0118 0.36083,-0.0954 0.14682,-0.11503 0.25447,-0.31904 0.25249,-0.47854 -0.004,-0.35481 -0.36467,-0.66022 -0.71113,-0.60286 -0.36492,0.0605 -0.60467,0.45654 -0.4816,0.79567 0.0351,0.0968 0.0327,0.1003 -0.21977,0.35055 l -0.25526,0.25284 h -1.46837 c -1.42739,0 -1.47017,9.9e-4 -1.52944,0.0601 -0.10181,0.1003 -0.0627,0.2768 0.0735,0.33122 0.0372,0.0146 0.75339,0.0242 1.60068,0.0208 l 1.53325,-0.006 z m 0.46081,-0.72654 c -0.13357,-0.052 -0.13536,-0.25627 -0.003,-0.32908 0.0755,-0.0414 0.0927,-0.0414 0.16886,-7e-5 0.21024,0.11409 0.0579,0.41621 -0.16593,0.32915 z m -1.97889,-0.97507 c 0.0402,-0.0403 0.25092,-0.33077 0.46856,-0.64547 l 0.39571,-0.57215 0.13954,-0.001 c 0.1797,-9.8e-4 0.38279,-0.10406 0.5025,-0.25248 0.086,-0.10679 0.0931,-0.13379 0.0917,-0.35077 -10e-4,-0.21701 -0.008,-0.24404 -0.0963,-0.35078 -0.11621,-0.14176 -0.32681,-0.25103 -0.48384,-0.25103 -0.2227,0 -0.46055,0.14512 -0.56591,0.34525 -0.065,0.12345 -0.0617,0.37255 0.006,0.51923 l 0.0564,0.12066 -0.38522,0.54547 -0.38522,0.54551 h -1.14399 c -1.295426,0 -1.280676,-0.002 -1.279196,0.21061 0.001,0.21444 -0.0232,0.21065 1.371876,0.21065 h 1.23379 z m 0.86268,-1.70874 c -0.0267,-0.0364 -0.0485,-0.088 -0.0487,-0.11368 -5.9e-4,-0.0879 0.0913,-0.18055 0.17907,-0.18055 0.10856,0 0.18039,0.0541 0.20597,0.15538 0.0433,0.17138 -0.2311,0.28467 -0.33641,0.13883 z"
         id="path334" /></g></g></svg>
